<svg xmlns="http://www.w3.org/2000/svg" viewBox="0 0 132.75 35.55"><defs><style>.cls-1{fill:#202c5c;}.cls-2{fill:#e32830;}.cls-3{fill:#21abe0;}.cls-4{fill:#6b4294;}.cls-5{fill:#ea7f39;}.cls-6{fill:#67b446;}.cls-7{fill:#f4bb18;}</style></defs><g id="Capa_2" data-name="Capa 2"><g id="Layer_1" data-name="Layer 1"><path class="cls-1" d="M84.64,21.33l.66-.68a1.46,1.46,0,0,0,1.16.67c.54,0,.91-.36.91-1.12V16.44h1v3.78a2.08,2.08,0,0,1-.53,1.53,1.94,1.94,0,0,1-1.39.5A2.18,2.18,0,0,1,84.64,21.33Z"/><path class="cls-1" d="M89.62,20.6V17.85h1V20.3c0,.68.34,1.06.93,1.06a1,1,0,0,0,1-1.07V17.85h1v4.32h-1V21.5a1.56,1.56,0,0,1-1.36.76A1.48,1.48,0,0,1,89.62,20.6Z"/><path class="cls-1" d="M94.75,17.85h1v.67a1.57,1.57,0,0,1,1.36-.76,1.48,1.48,0,0,1,1.54,1.66v2.75h-1V19.71c0-.67-.34-1.05-.93-1.05a1,1,0,0,0-1,1.07v2.44h-1Z"/><path class="cls-1" d="M100,21V18.7h-.55v-.85H100V16.66h1v1.19h1.16v.85H101v2.12a.47.47,0,0,0,.53.54,1.35,1.35,0,0,0,.62-.15V22a1.87,1.87,0,0,1-.9.22A1.11,1.11,0,0,1,100,21Z"/><path class="cls-1" d="M102.84,20h0a2.31,2.31,0,0,1,4.62,0v0a2.31,2.31,0,0,1-4.62,0Zm3.62,0h0a1.34,1.34,0,0,0-1.32-1.4A1.31,1.31,0,0,0,103.83,20v0a1.34,1.34,0,0,0,1.32,1.39A1.3,1.3,0,0,0,106.46,20Z"/><path class="cls-1" d="M108.11,21.61l.44-.67a2.46,2.46,0,0,0,1.42.53c.43,0,.67-.18.67-.47v0c0-.33-.46-.45-1-.6s-1.36-.44-1.36-1.27v0a1.38,1.38,0,0,1,1.54-1.32,3,3,0,0,1,1.59.49l-.39.71a2.46,2.46,0,0,0-1.22-.41c-.38,0-.61.18-.61.43v0c0,.31.47.44,1,.61s1.34.48,1.34,1.26h0c0,.91-.7,1.36-1.6,1.36A3.07,3.07,0,0,1,108.11,21.61Z"/><path class="cls-1" d="M85.15,24.71h1v6h-1Z"/><path class="cls-1" d="M87.2,28.56v0a2.31,2.31,0,0,1,4.61,0v0a2.26,2.26,0,0,1-2.32,2.25A2.23,2.23,0,0,1,87.2,28.56Zm3.62,0v0a1.34,1.34,0,0,0-1.33-1.39,1.3,1.3,0,0,0-1.3,1.37v0a1.34,1.34,0,0,0,1.32,1.39A1.3,1.3,0,0,0,90.82,28.56Z"/><path class="cls-1" d="M95.34,24.71h1v6h-1Z"/><path class="cls-1" d="M97.38,28.56v0a2.31,2.31,0,0,1,4.62,0v0a2.26,2.26,0,0,1-2.32,2.25A2.24,2.24,0,0,1,97.38,28.56Zm3.63,0v0a1.34,1.34,0,0,0-1.33-1.39,1.29,1.29,0,0,0-1.3,1.37v0a1.33,1.33,0,0,0,1.31,1.39A1.31,1.31,0,0,0,101,28.56Z"/><path class="cls-1" d="M103,31.51l.37-.75a2.77,2.77,0,0,0,1.54.46,1.21,1.21,0,0,0,1.37-1.33v-.33a1.85,1.85,0,0,1-1.53.79,1.94,1.94,0,0,1-2-2v0a2,2,0,0,1,2-2,1.86,1.86,0,0,1,1.52.74v-.65h1v3.44a2.21,2.21,0,0,1-.55,1.63,2.45,2.45,0,0,1-1.78.58A3.76,3.76,0,0,1,103,31.51Zm3.28-3.18v0a1.21,1.21,0,0,0-1.27-1.2,1.17,1.17,0,0,0-1.23,1.19v0a1.19,1.19,0,0,0,1.23,1.2A1.22,1.22,0,0,0,106.28,28.33Z"/><path class="cls-1" d="M108.5,26.37h1v1A1.53,1.53,0,0,1,111,26.29v1.05H111c-.87,0-1.47.56-1.47,1.71V30.7h-1Z"/><path class="cls-1" d="M114.33,30.7v-.54a1.71,1.71,0,0,1-1.4.63,1.39,1.39,0,0,1-1.54-1.34v0c0-1,.74-1.41,1.75-1.41a3.57,3.57,0,0,1,1.2.18v-.09c0-.59-.38-.92-1.07-.92a2.88,2.88,0,0,0-1.23.27l-.27-.8a3.72,3.72,0,0,1,1.64-.36,1.67,1.67,0,0,1,1.9,1.83V30.7Zm0-1.82a3.1,3.1,0,0,0-1-.17c-.62,0-1,.26-1,.67v0c0,.41.37.64.84.64.65,0,1.15-.37,1.15-.91Z"/><path class="cls-1" d="M116.49,26.37h1V27a1.54,1.54,0,0,1,1.32-.74,1.35,1.35,0,0,1,1.28.76,1.76,1.76,0,0,1,1.47-.76,1.46,1.46,0,0,1,1.52,1.65V30.7h-1V28.24c0-.69-.32-1.06-.87-1.06s-.93.38-.93,1.07V30.7h-1V28.23c0-.67-.33-1.05-.88-1.05s-.92.41-.92,1.08V30.7h-1Z"/><path class="cls-1" d="M124,28.56v0a2.31,2.31,0,0,1,4.62,0v0a2.26,2.26,0,0,1-2.32,2.25A2.24,2.24,0,0,1,124,28.56Zm3.62,0v0a1.34,1.34,0,0,0-1.32-1.39A1.3,1.3,0,0,0,125,28.52v0a1.34,1.34,0,0,0,1.32,1.39A1.3,1.3,0,0,0,127.66,28.56Z"/><path class="cls-1" d="M129.31,30.13l.44-.67a2.46,2.46,0,0,0,1.42.53c.43,0,.67-.18.67-.47h0c0-.34-.46-.45-1-.61s-1.36-.44-1.36-1.27v0a1.38,1.38,0,0,1,1.54-1.32,2.9,2.9,0,0,1,1.59.5l-.39.7a2.56,2.56,0,0,0-1.22-.41c-.39,0-.61.18-.61.44h0c0,.31.47.44,1,.61s1.34.48,1.34,1.26v0c0,.91-.7,1.36-1.6,1.36A3,3,0,0,1,129.31,30.13Z"/><path class="cls-1" d="M17.72,8h-.09a.91.91,0,0,1-.76-.62l-2-6.15A.92.92,0,0,1,15.44,0a.9.9,0,0,1,1.13.58L18,4.84,20.13,1a.9.9,0,0,1,1.57.89L18.5,7.5a.9.9,0,0,1-.78.45"/><path class="cls-2" d="M11,9.31a.92.92,0,0,1-.47-.14L5.31,5.77a.86.86,0,0,1,.94-1.45L9.83,6.65,9.14,2.44a.87.87,0,1,1,1.71-.28l1,6.14a.9.9,0,0,1-.38.87.92.92,0,0,1-.48.14"/><path class="cls-3" d="M.88,14.48a.82.82,0,0,1,0-1.63l4-.18L2,9.83A.82.82,0,0,1,2,8.68a.81.81,0,0,1,1.15,0l4.13,4.15a.82.82,0,0,1-.54,1.39l-5.85.26h0"/><path class="cls-4" d="M2.47,25.22a.84.84,0,0,1-.58-1.46l3-2.84L.78,20.61a.84.84,0,1,1,.13-1.68l6,.46a.85.85,0,0,1,.72.56.83.83,0,0,1-.21.89L3,25a.85.85,0,0,1-.57.23"/><path class="cls-5" d="M9,31.84l-.18,0a.76.76,0,0,1-.55-.91l.9-3.57L6,29.09a.75.75,0,0,1-.72-1.32L10,25.22a.75.75,0,0,1,.82.07.73.73,0,0,1,.26.77l-1.3,5.21a.75.75,0,0,1-.72.57"/><path class="cls-6" d="M14,33.18a.59.59,0,0,1-.23,0,.65.65,0,0,1-.37-.83L15.07,28A.64.64,0,0,1,16.24,28l2,4.14A.65.65,0,0,1,18,33a.64.64,0,0,1-.85-.29l-1.4-2.84-1.15,2.94a.65.65,0,0,1-.6.41"/><path class="cls-7" d="M23.69,11.58a1,1,0,0,1-.71-.3,1,1,0,0,1-.2-1.06l2.7-6.55a1,1,0,0,1,1.29-.53,1,1,0,0,1,.53,1.28L25.45,8.91,30,7.26a1,1,0,1,1,.67,1.85L24,11.52a.92.92,0,0,1-.33.06"/><path class="cls-1" d="M20.3,23l-.14-1a2.64,2.64,0,0,1-1,.82,3.64,3.64,0,0,1-1.71.36,5.15,5.15,0,0,1-1.88-.35,4.48,4.48,0,0,1-1.54-1,4.73,4.73,0,0,1-1-1.57,5.25,5.25,0,0,1-.39-2.06,4.8,4.8,0,0,1,3.07-4.64,5.12,5.12,0,0,1,1.92-.36,5.38,5.38,0,0,1,1.79.28,4.59,4.59,0,0,1,1.3.7,3.65,3.65,0,0,1,.85,1,4.72,4.72,0,0,1,.49,1L20,16.86a2.76,2.76,0,0,0-.21-.51,2.22,2.22,0,0,0-.44-.55,2.38,2.38,0,0,0-.71-.44,2.66,2.66,0,0,0-1-.18,3.12,3.12,0,0,0-1,.17,2.5,2.5,0,0,0-.91.54,2.59,2.59,0,0,0-.67.93,3.3,3.3,0,0,0-.26,1.36A3.59,3.59,0,0,0,15,19.51a2.77,2.77,0,0,0,.63.94,2.61,2.61,0,0,0,.92.58,3.1,3.1,0,0,0,1.1.19,2.59,2.59,0,0,0,1-.17,2.41,2.41,0,0,0,.71-.41,1.87,1.87,0,0,0,.44-.51,1.93,1.93,0,0,0,.2-.47H17.15V17.85H22V23Z"/><path class="cls-1" d="M26.57,16.05a3.79,3.79,0,0,1,1.4.26,3.46,3.46,0,0,1,1.13.74,3.52,3.52,0,0,1,.76,1.12,3.68,3.68,0,0,1,.27,1.43A3.77,3.77,0,0,1,29.86,21a3.57,3.57,0,0,1-.76,1.13,3.63,3.63,0,0,1-1.13.74,3.93,3.93,0,0,1-2.81,0A3.63,3.63,0,0,1,24,22.17,3.38,3.38,0,0,1,23.28,21,3.59,3.59,0,0,1,23,19.6a3.51,3.51,0,0,1,.28-1.43A3.34,3.34,0,0,1,24,17.05a3.46,3.46,0,0,1,1.13-.74A3.8,3.8,0,0,1,26.57,16.05Zm0,5.23a1.78,1.78,0,0,0,.56-.1,1.42,1.42,0,0,0,.82-.84,2.14,2.14,0,0,0,0-1.47,1.43,1.43,0,0,0-.34-.53,1.5,1.5,0,0,0-.48-.3A1.62,1.62,0,0,0,26,18a1.44,1.44,0,0,0-.49.3,1.56,1.56,0,0,0-.34.53,2,2,0,0,0-.13.73,2.08,2.08,0,0,0,.13.74,1.67,1.67,0,0,0,.34.53,1.46,1.46,0,0,0,.49.31A1.78,1.78,0,0,0,26.57,21.28Z"/><path class="cls-1" d="M31.24,23V13.18h2v3.71a1.8,1.8,0,0,1,.74-.56,2.87,2.87,0,0,1,1.21-.24,3.22,3.22,0,0,1,1.31.26,2.77,2.77,0,0,1,1,.73,3.33,3.33,0,0,1,.62,1.11,4.47,4.47,0,0,1,.21,1.4A4.36,4.36,0,0,1,38.09,21a3.26,3.26,0,0,1-.67,1.11,2.94,2.94,0,0,1-1,.73,3,3,0,0,1-1.29.26A2.52,2.52,0,0,1,34,22.86a1.7,1.7,0,0,1-.72-.65V23Zm5-3.37a2,2,0,0,0-.12-.73,1.41,1.41,0,0,0-.33-.53,1.54,1.54,0,0,0-.49-.3,1.7,1.7,0,0,0-1.15,0,1.54,1.54,0,0,0-.49.3,1.41,1.41,0,0,0-.33.53,2.11,2.11,0,0,0,0,1.46,1.45,1.45,0,0,0,.33.52,1.43,1.43,0,0,0,.49.32,1.65,1.65,0,0,0,.57.11,1.91,1.91,0,0,0,.58-.1,1.57,1.57,0,0,0,.49-.31,1.49,1.49,0,0,0,.33-.53A2.09,2.09,0,0,0,36.27,19.6Z"/><path class="cls-1" d="M39.23,14.2a1.23,1.23,0,0,1,.09-.47,1.16,1.16,0,0,1,.26-.38,1.12,1.12,0,0,1,.38-.26,1.17,1.17,0,0,1,1.32.26,1.12,1.12,0,0,1,.35.85,1.15,1.15,0,0,1-.35.85,1.18,1.18,0,0,1-.86.35,1,1,0,0,1-.46-.1,1.09,1.09,0,0,1-.38-.25,1.33,1.33,0,0,1-.26-.39A1.22,1.22,0,0,1,39.23,14.2ZM39.4,23V16.25h2.06V23Z"/><path class="cls-1" d="M49.13,21a3,3,0,0,1-.38.83,2.58,2.58,0,0,1-.64.68,3.3,3.3,0,0,1-.92.46,3.88,3.88,0,0,1-2.48-.07,3.55,3.55,0,0,1-1.12-.71,3.34,3.34,0,0,1-.77-1.12,3.77,3.77,0,0,1-.28-1.51,3.67,3.67,0,0,1,.28-1.47A3.32,3.32,0,0,1,43.56,17a3.18,3.18,0,0,1,1.07-.71,3.26,3.26,0,0,1,1.26-.25,3.35,3.35,0,0,1,2.47.9,3.49,3.49,0,0,1,.89,2.54c0,.15,0,.29,0,.42a1,1,0,0,1,0,.22H44.54a1.15,1.15,0,0,0,.14.52,1.49,1.49,0,0,0,.34.41,1.42,1.42,0,0,0,.48.27,1.8,1.8,0,0,0,.57.1,1.44,1.44,0,0,0,.88-.25,1.42,1.42,0,0,0,.47-.63ZM47.27,18.8a1.55,1.55,0,0,0-.09-.39,1,1,0,0,0-.24-.36,1.13,1.13,0,0,0-.41-.27,1.58,1.58,0,0,0-.61-.11,1.41,1.41,0,0,0-.57.11,1.33,1.33,0,0,0-.41.27,1.1,1.1,0,0,0-.26.36,1.25,1.25,0,0,0-.1.39Z"/><path class="cls-1" d="M54.65,18.28l-.34-.06H54a2,2,0,0,0-.6.09,1.34,1.34,0,0,0-.5.32,1.47,1.47,0,0,0-.34.56,2.41,2.41,0,0,0-.13.85V23h-2V16.25h2v.91a1.57,1.57,0,0,1,.35-.48,1.82,1.82,0,0,1,.45-.29,1.87,1.87,0,0,1,.49-.16,2.68,2.68,0,0,1,.45-.05,2.23,2.23,0,0,1,.55.07Z"/><path class="cls-1" d="M57.6,23H55.55V16.25h2V17a1.4,1.4,0,0,1,.35-.42,2.22,2.22,0,0,1,.46-.29,2.52,2.52,0,0,1,.53-.17,2.58,2.58,0,0,1,.54-.07,2.62,2.62,0,0,1,1.09.21,2.11,2.11,0,0,1,.76.58,2.31,2.31,0,0,1,.45.85,3.84,3.84,0,0,1,.14,1V23h-2V19.1a1.27,1.27,0,0,0-.27-.83,1,1,0,0,0-.83-.33,1,1,0,0,0-.81.33,1.21,1.21,0,0,0-.3.85Z"/><path class="cls-1" d="M66.44,16.05a3.8,3.8,0,0,1,1.41.26,3.46,3.46,0,0,1,1.13.74,3.34,3.34,0,0,1,.75,1.12A3.51,3.51,0,0,1,70,19.6,3.59,3.59,0,0,1,69.73,21,3.38,3.38,0,0,1,69,22.17a3.63,3.63,0,0,1-1.13.74,3.93,3.93,0,0,1-2.81,0,3.52,3.52,0,0,1-1.13-.74A3.57,3.57,0,0,1,63.15,21a3.77,3.77,0,0,1-.28-1.44,3.68,3.68,0,0,1,.28-1.43,3.52,3.52,0,0,1,.76-1.12A3.36,3.36,0,0,1,65,16.31,3.79,3.79,0,0,1,66.44,16.05Zm0,5.23a1.8,1.8,0,0,0,.57-.1,1.52,1.52,0,0,0,.48-.31,1.67,1.67,0,0,0,.34-.53A2,2,0,0,0,68,19.6a2,2,0,0,0-.13-.73,1.56,1.56,0,0,0-.34-.53A1.5,1.5,0,0,0,67,18a1.56,1.56,0,0,0-.57-.1,1.58,1.58,0,0,0-.56.1,1.3,1.3,0,0,0-.82.83,1.83,1.83,0,0,0-.13.73,1.88,1.88,0,0,0,.13.74,1.65,1.65,0,0,0,.33.53,1.57,1.57,0,0,0,.49.31A1.84,1.84,0,0,0,66.44,21.28Z"/><path class="cls-1" d="M24.73,30.29c0,.14,0,.26,0,.35s0,.17,0,.2h-.91a.68.68,0,0,0,0-.12,1.09,1.09,0,0,1,0-.18.68.68,0,0,1-.33.26,1.12,1.12,0,0,1-.5.11,1.46,1.46,0,0,1-.6-.12,1.54,1.54,0,0,1-.49-.34,1.48,1.48,0,0,1-.32-.51,1.74,1.74,0,0,1-.11-.65,1.69,1.69,0,0,1,.11-.64,1.45,1.45,0,0,1,.31-.51,1.32,1.32,0,0,1,.47-.34,1.46,1.46,0,0,1,.6-.12,1.58,1.58,0,0,1,.34,0,1.23,1.23,0,0,1,.25.08.64.64,0,0,1,.16.11.76.76,0,0,0,.09.09V26.34h.93Zm-2.31-1a1.16,1.16,0,0,0,0,.34,1,1,0,0,0,.15.24.68.68,0,0,0,.23.14.58.58,0,0,0,.26,0,.65.65,0,0,0,.27,0,.64.64,0,0,0,.22-.14,1,1,0,0,0,.15-.24.9.9,0,0,0,.06-.34.81.81,0,0,0-.06-.33.7.7,0,0,0-.15-.24.52.52,0,0,0-.22-.14.65.65,0,0,0-.27,0,.58.58,0,0,0-.26,0,.55.55,0,0,0-.23.14.7.7,0,0,0-.15.24A1,1,0,0,0,22.42,29.29Z"/><path class="cls-1" d="M28.27,30a1.17,1.17,0,0,1-.17.38,1.26,1.26,0,0,1-.3.31,1.38,1.38,0,0,1-.42.21,1.48,1.48,0,0,1-.53.08,1.83,1.83,0,0,1-.61-.11,1.52,1.52,0,0,1-.51-.32,1.61,1.61,0,0,1-.36-.52,1.84,1.84,0,0,1-.13-.69,1.65,1.65,0,0,1,.13-.68,1.52,1.52,0,0,1,.34-.51,1.63,1.63,0,0,1,.49-.33,1.66,1.66,0,0,1,.58-.11,1.54,1.54,0,0,1,1.14.42,1.58,1.58,0,0,1,.41,1.16,1.15,1.15,0,0,1,0,.19.45.45,0,0,1,0,.1H26.16a.61.61,0,0,0,.07.24.58.58,0,0,0,.15.19.71.71,0,0,0,.22.13.75.75,0,0,0,.26,0,.69.69,0,0,0,.41-.11.61.61,0,0,0,.21-.29Zm-.85-1a1.16,1.16,0,0,0,0-.18.5.5,0,0,0-.11-.17.91.91,0,0,0-.19-.13.79.79,0,0,0-.29-.05.75.75,0,0,0-.26.05l-.19.13a.39.39,0,0,0-.11.17.41.41,0,0,0-.05.18Z"/><path class="cls-1" d="M28.83,30.84v-4.5h1v4.5Z"/><path class="cls-1" d="M32.33,30.84V25H36v1.22H33.62v1.11h2.17V28.5H33.62v1.11H36v1.23Z"/><path class="cls-1" d="M38,30.84H36.76V26.77H38v.46a.72.72,0,0,1,.21-.25,1.67,1.67,0,0,1,.28-.18,1.7,1.7,0,0,1,.32-.1,1.24,1.24,0,0,1,.33,0,1.53,1.53,0,0,1,.66.13,1.28,1.28,0,0,1,.73.86,2.18,2.18,0,0,1,.09.63v2.56H39.34V28.5a.78.78,0,0,0-.16-.51.6.6,0,0,0-.5-.2.63.63,0,0,0-.49.2.76.76,0,0,0-.18.51Z"/><path class="cls-1" d="M43.4,27.79a1,1,0,0,0-.66.26,1.16,1.16,0,0,0-.2.32,1.2,1.2,0,0,0-.07.44,1.18,1.18,0,0,0,.07.43,1,1,0,0,0,.21.31.69.69,0,0,0,.3.2,1.1,1.1,0,0,0,.37.06.85.85,0,0,0,.57-.18.89.89,0,0,0,.27-.42l1.1.33a1.64,1.64,0,0,1-.23.53,1.71,1.71,0,0,1-.4.45,2.16,2.16,0,0,1-.58.32,2.07,2.07,0,0,1-.73.12,2.23,2.23,0,0,1-.86-.16,2,2,0,0,1-.69-.44,2.09,2.09,0,0,1-.64-1.55,2.13,2.13,0,0,1,.17-.88,2,2,0,0,1,.46-.68,2.12,2.12,0,0,1,.68-.45,2.32,2.32,0,0,1,.84-.16,2.23,2.23,0,0,1,.75.12,2,2,0,0,1,.58.32,1.55,1.55,0,0,1,.4.45,1.61,1.61,0,0,1,.22.53l-1.11.34a.77.77,0,0,0-.1-.23A1,1,0,0,0,44,28a.92.92,0,0,0-.24-.13A1,1,0,0,0,43.4,27.79Z"/><path class="cls-1" d="M48.59,30.84a1.52,1.52,0,0,1,0-.19c0-.09,0-.17,0-.22a.9.9,0,0,1-.47.38,1.67,1.67,0,0,1-.62.12,1.51,1.51,0,0,1-.65-.13,1.34,1.34,0,0,1-.49-.34A1.53,1.53,0,0,1,46,30a1.74,1.74,0,0,1-.1-.61V26.77h1.24v2.31a.85.85,0,0,0,.16.5.61.61,0,0,0,.5.2.64.64,0,0,0,.49-.19.68.68,0,0,0,.19-.5V26.77h1.24v3.34c0,.19,0,.35,0,.48s0,.22,0,.25Z"/><path class="cls-1" d="M54.42,29.67a1.73,1.73,0,0,1-.23.5,1.52,1.52,0,0,1-.39.41,1.9,1.9,0,0,1-.55.28,2.37,2.37,0,0,1-1.51-.05,2.09,2.09,0,0,1-.68-.42,2,2,0,0,1-.46-.68,2.25,2.25,0,0,1-.18-.92,2.31,2.31,0,0,1,.17-.89,2,2,0,0,1,.45-.67,2.2,2.2,0,0,1,.65-.44,2.21,2.21,0,0,1,2.26.4,2.11,2.11,0,0,1,.55,1.54c0,.09,0,.17,0,.25a.58.58,0,0,1,0,.14H51.64a.65.65,0,0,0,.08.31.72.72,0,0,0,.21.25.92.92,0,0,0,.29.17,1,1,0,0,0,.34,0,.87.87,0,0,0,.54-.14.85.85,0,0,0,.28-.39Zm-1.13-1.35a.69.69,0,0,0,0-.24.54.54,0,0,0-.15-.22.69.69,0,0,0-.25-.17,1,1,0,0,0-.37-.06.9.9,0,0,0-.34.06.92.92,0,0,0-.25.17.69.69,0,0,0-.16.22,1.05,1.05,0,0,0-.06.24Z"/><path class="cls-1" d="M56.42,30.84H55.18V26.77h1.2v.46a1,1,0,0,1,.21-.25,1.75,1.75,0,0,1,.29-.18,1.5,1.5,0,0,1,.32-.1,1.22,1.22,0,0,1,.32,0,1.47,1.47,0,0,1,.66.13,1.35,1.35,0,0,1,.47.34,1.51,1.51,0,0,1,.27.52,2.59,2.59,0,0,1,.08.63v2.56H57.76V28.5A.84.84,0,0,0,57.6,28a.63.63,0,0,0-.51-.2.65.65,0,0,0-.49.2.76.76,0,0,0-.18.51Z"/><path class="cls-1" d="M61.42,26.77h.8v1.09h-.8v1.52a.4.4,0,0,0,.12.34.58.58,0,0,0,.33.09l.19,0,.14,0v1l-.2.06a1.32,1.32,0,0,1-.45.05,1.36,1.36,0,0,1-1-.35,1.27,1.27,0,0,1-.36-1V27.86h-.72V26.77h.21a.59.59,0,0,0,.47-.19.77.77,0,0,0,.16-.48v-.52h1.11Z"/><path class="cls-1" d="M65.49,28l-.21,0h-.19a1.13,1.13,0,0,0-.36.06.8.8,0,0,0-.3.19.89.89,0,0,0-.21.34,1.62,1.62,0,0,0-.08.52v1.78H62.9V26.77h1.2v.55a.81.81,0,0,1,.21-.29.91.91,0,0,1,.27-.18,1.18,1.18,0,0,1,.3-.1,1.42,1.42,0,0,1,.28,0,1.15,1.15,0,0,1,.33,0Z"/><path class="cls-1" d="M67.92,26.64a2.34,2.34,0,0,1,.85.16,2.29,2.29,0,0,1,.69.45,2.33,2.33,0,0,1,.46.68,2.45,2.45,0,0,1,0,1.74,2.38,2.38,0,0,1-.46.69,2.08,2.08,0,0,1-.69.44,2.34,2.34,0,0,1-1.7,0,2,2,0,0,1-.69-.44,2.38,2.38,0,0,1-.46-.69,2.45,2.45,0,0,1,0-1.74,2.33,2.33,0,0,1,.46-.68,2.17,2.17,0,0,1,.69-.45A2.34,2.34,0,0,1,67.92,26.64Zm0,3.17a1,1,0,0,0,.34-.06.7.7,0,0,0,.29-.19.85.85,0,0,0,.21-.31,1.31,1.31,0,0,0,0-.9.77.77,0,0,0-.21-.31.7.7,0,0,0-.29-.19,1,1,0,0,0-.68,0,.8.8,0,0,0-.3.19.87.87,0,0,0-.2.31,1.31,1.31,0,0,0,0,.9,1,1,0,0,0,.2.31.8.8,0,0,0,.3.19A1,1,0,0,0,67.92,29.81Z"/><rect class="cls-7" x="77.22" y="11.08" width="1.31" height="24.47"/><rect class="cls-1" x="77.22" y="22.62" width="1.31" height="12.93"/><rect class="cls-2" x="77.22" y="29.01" width="1.31" height="6.53"/></g></g></svg>